<svg width="40" height="40" viewBox="0 0 40 40" xmlns="http://www.w3.org/2000/svg">
  <path d="M20 4C11.1634 4 4 11.1634 4 20C4 28.8366 11.1634 36 20 36C21.6569 36 23 34.6569 23 33C23 32.2261 22.7056 31.5212 22.2197 31C21.7338 30.4788 21.4393 29.7739 21.4393 29C21.4393 27.3431 22.7824 26 24.4393 26H28C32.4183 26 36 22.4183 36 18C36 10.268 28.8366 4 20 4Z" stroke="#4F38D6" stroke-width="2.5" fill="white"/>
  <circle cx="12" cy="14" r="2.5" fill="#FF5F5F"/>
  <circle cx="12" cy="24" r="2.5" fill="#5FFF9F"/>
  <circle cx="20" cy="11" r="2.5" fill="#5F5FFF"/>
  <circle cx="28" cy="14" r="2.5" fill="#FFCF5F"/>
  <circle cx="30" cy="21" r="2.5" fill="#A78BFA"/>
  <circle cx="28" cy="30" r="3" fill="#F3F4F6" stroke="#4F38D6" stroke-width="1"/>
</svg>
